<svg width="48" height="48" viewBox="0 0 48 48" fill="none" xmlns="http://www.w3.org/2000/svg">
    <circle cx="33" cy="24" r="14" stroke="#317185" stroke-width="2"/>
    <circle cx="15" cy="24" r="14" stroke="#5ACDF0" stroke-width="2"/>
    <path d="M4.372 27H5.968C7.48 27 8.362 26.1 8.362 24.888V24.876C8.362 23.664 7.492 22.8 5.992 22.8H4.372V27ZM5.536 25.968V23.832H6.01C6.706 23.832 7.168 24.222 7.168 24.894V24.906C7.168 25.584 6.706 25.968 6.01 25.968H5.536ZM9.49459 27.072C9.92059 27.072 10.2266 26.91 10.4486 26.664V27H11.5766V25.134C11.5766 24.678 11.4746 24.342 11.2286 24.102C10.9706 23.844 10.5746 23.706 9.99259 23.706C9.43459 23.706 9.04459 23.808 8.67859 23.958L8.91259 24.762C9.20059 24.648 9.46459 24.582 9.80659 24.582C10.2446 24.582 10.4546 24.774 10.4546 25.11V25.164C10.2686 25.098 9.97459 25.038 9.67459 25.038C8.91259 25.038 8.40259 25.386 8.40259 26.058V26.07C8.40259 26.718 8.87659 27.072 9.49459 27.072ZM9.90259 26.358C9.66859 26.358 9.50059 26.226 9.50059 26.004V25.992C9.50059 25.752 9.69259 25.59 10.0226 25.59C10.1906 25.59 10.3526 25.626 10.4666 25.674V25.824C10.4666 26.148 10.2326 26.358 9.90259 26.358ZM13.1171 27.066C13.4351 27.066 13.7051 26.994 13.9091 26.88V25.986C13.7711 26.052 13.6271 26.094 13.4771 26.094C13.2671 26.094 13.1651 25.998 13.1651 25.77V24.672H13.9211V23.754H13.1651V22.932H12.0251V23.754H11.6411V24.672H12.0251V25.992C12.0251 26.766 12.4331 27.066 13.1171 27.066ZM14.1111 23.46H15.2991V22.62H14.1111V23.46ZM14.1351 27H15.2751V23.754H14.1351V27ZM15.6099 27H16.7499V25.242C16.7499 24.888 16.9539 24.696 17.2299 24.696C17.4999 24.696 17.6859 24.888 17.6859 25.242V27H18.8259V24.876C18.8259 24.138 18.4119 23.682 17.7219 23.682C17.2599 23.682 16.9599 23.94 16.7499 24.21V23.754H15.6099V27ZM20.7086 27.972C21.3866 27.972 21.8426 27.81 22.1366 27.516C22.4246 27.228 22.5566 26.814 22.5566 26.22V23.754H21.4166V24.138C21.1706 23.88 20.8826 23.682 20.3966 23.682C19.6466 23.682 18.9926 24.258 18.9926 25.194V25.206C18.9926 26.136 19.6346 26.712 20.4326 26.712C20.9066 26.712 21.2066 26.49 21.4346 26.226V26.352C21.4346 26.868 21.1526 27.15 20.5826 27.15C20.1446 27.15 19.7966 27.036 19.4486 26.844L19.0826 27.6C19.5506 27.84 20.0786 27.972 20.7086 27.972ZM20.7746 25.836C20.3846 25.836 20.1086 25.572 20.1086 25.212V25.2C20.1086 24.84 20.3846 24.57 20.7746 24.57C21.1586 24.57 21.4346 24.834 21.4346 25.194V25.206C21.4346 25.566 21.1586 25.836 20.7746 25.836Z" fill="#5ACDF0"/>
    <path d="M26.1433 23.088V22.8H23.1853V27H23.4973V25.098H25.8733V24.81H23.4973V23.088H26.1433ZM30.6808 24.9C30.6868 24.894 30.6868 24.894 30.6808 24.888C30.6808 23.742 29.8468 22.728 28.5748 22.728C27.3028 22.728 26.4568 23.754 26.4568 24.9V24.912C26.4568 26.058 27.2908 27.072 28.5628 27.072C29.8348 27.072 30.6808 26.046 30.6808 24.9ZM30.3568 24.912C30.3568 25.95 29.6128 26.79 28.5748 26.79C27.5368 26.79 26.7808 25.938 26.7808 24.9V24.888C26.7808 23.85 27.5248 23.01 28.5628 23.01C29.6008 23.01 30.3568 23.862 30.3568 24.9V24.912ZM33.3785 24.9C33.3845 24.894 33.3845 24.894 33.3785 24.888C33.3785 23.742 32.5445 22.728 31.2725 22.728C30.0005 22.728 29.1545 23.754 29.1545 24.9V24.912C29.1545 26.058 29.9885 27.072 31.2605 27.072C32.5325 27.072 33.3785 26.046 33.3785 24.9ZM33.0545 24.912C33.0545 25.95 32.3105 26.79 31.2725 26.79C30.2345 26.79 29.4785 25.938 29.4785 24.9V24.888C29.4785 23.85 30.2225 23.01 31.2605 23.01C32.2985 23.01 33.0545 23.862 33.0545 24.9V24.912ZM37.5881 24.9V24.888C37.5881 23.706 36.6761 22.8 35.3561 22.8H33.9581V27H35.3561C36.6761 27 37.5881 26.082 37.5881 24.9ZM37.2641 24.912C37.2641 25.914 36.5261 26.712 35.3561 26.712H34.2701V23.088H35.3561C36.5261 23.088 37.2641 23.904 37.2641 24.9V24.912ZM38.5255 27V22.8H38.2135V27H38.5255ZM42.356 27V26.712H39.65V25.026H42.056V24.738H39.65V23.088H42.326V22.8H39.338V27H42.356ZM45.6915 25.914V25.902C45.6915 25.29 45.2835 24.942 44.3115 24.744C43.3155 24.54 43.0875 24.27 43.0875 23.826V23.814C43.0875 23.376 43.4955 23.022 44.1135 23.022C44.5755 23.022 44.9715 23.154 45.3675 23.496L45.5655 23.25C45.1395 22.908 44.7375 22.74 44.1255 22.74C43.3455 22.74 42.7755 23.22 42.7755 23.844V23.856C42.7755 24.492 43.1835 24.834 44.1915 25.038C45.1455 25.23 45.3795 25.488 45.3795 25.932V25.944C45.3795 26.424 44.9475 26.778 44.3175 26.778C43.6995 26.778 43.2735 26.58 42.8115 26.154L42.6075 26.388C43.1115 26.838 43.6275 27.06 44.2995 27.06C45.1095 27.06 45.6915 26.592 45.6915 25.914Z" fill="#317185"/>
</svg>
